<svg width="61" height="41" fill="none" xmlns="http://www.w3.org/2000/svg"><path fill-rule="evenodd" clip-rule="evenodd" d="M31.56.694a.7.7 0 1 0-1.4.012l.05 5.546a26.13 26.13 0 0 0-3.71.455L25.07 1.732a.7.7 0 1 0-1.346.387l1.405 4.89a29.63 29.63 0 0 0-4.274 1.416l-2.742-3.79a.7.7 0 0 0-1.135.82l2.57 3.55a31.193 31.193 0 0 0-3.904 2.196L13.18 8.88a.7.7 0 0 0-.96 1.019l2.252 2.12a24.82 24.82 0 0 0-2.078 1.701.7.7 0 0 0 .947 1.031c2.887-2.653 8.126-5.868 14.396-6.84 6.236-.967 13.52.277 20.595 6.57a.7.7 0 0 0 .93-1.047 33.805 33.805 0 0 0-2.207-1.805l2.212-2a.7.7 0 0 0-.939-1.038l-2.44 2.206a28.292 28.292 0 0 0-3.602-2.084l2.409-3.495a.7.7 0 1 0-1.153-.794l-2.554 3.706a24.876 24.876 0 0 0-4.408-1.378l1.416-5.028a.7.7 0 1 0-1.348-.38l-1.451 5.156a24.558 24.558 0 0 0-3.587-.28L31.56.693ZM13.236 18.88l.272-.243-.272-.242c2.957-3.319 8.248-7.31 14.544-8.464 6.36-1.165 13.645.587 20.437 8.588l-.14.118.14.12c-6.792 8-14.076 9.752-20.437 8.586-6.296-1.153-11.587-5.145-14.544-8.463Zm14.797 7.086c-5.48-1.004-10.208-4.328-13.112-7.329 2.904-3 7.633-6.325 13.112-7.329 5.632-1.031 12.15.369 18.428 7.33-6.278 6.96-12.796 8.36-18.428 7.328Zm8-7.162a5.229 5.229 0 1 1-10.457 0 5.229 5.229 0 0 1 10.458 0Zm1.4 0a6.629 6.629 0 1 1-13.257 0 6.629 6.629 0 0 1 13.258 0Zm-6.74 2.11a2.11 2.11 0 1 0 0-4.219 2.11 2.11 0 0 0 0 4.219Zm0 1.4a3.51 3.51 0 1 0 0-7.019 3.51 3.51 0 0 0 0 7.019Z" fill="#FF9533"/><path d="M5.97 34.36c.4.127.713.34.94.64.227.293.34.657.34 1.09 0 .613-.24 1.087-.72 1.42-.473.327-1.167.49-2.08.49H.83v-7h3.42c.853 0 1.507.163 1.96.49.46.327.69.77.69 1.33 0 .34-.083.643-.25.91a1.68 1.68 0 0 1-.68.63Zm-3.53-2.14v1.65h1.61c.4 0 .703-.07.91-.21.207-.14.31-.347.31-.62s-.103-.477-.31-.61c-.207-.14-.51-.21-.91-.21H2.44Zm1.89 4.56c.427 0 .747-.07.96-.21.22-.14.33-.357.33-.65 0-.58-.43-.87-1.29-.87H2.44v1.73h1.89Zm4.036-4.16h1.56V38h-1.56v-5.38Zm.78-.75c-.286 0-.52-.083-.7-.25a.81.81 0 0 1-.27-.62.81.81 0 0 1 .27-.62c.18-.167.414-.25.7-.25.287 0 .52.08.7.24.18.16.27.36.27.6 0 .26-.09.477-.27.65-.18.167-.413.25-.7.25Zm7.778.75v4.48c0 .987-.256 1.72-.77 2.2-.513.48-1.263.72-2.25.72-.52 0-1.013-.063-1.48-.19-.466-.127-.853-.31-1.16-.55l.62-1.12c.227.187.514.333.86.44.347.113.694.17 1.04.17.54 0 .937-.123 1.19-.37.26-.24.39-.607.39-1.1v-.23c-.406.447-.973.67-1.7.67-.493 0-.946-.107-1.36-.32a2.523 2.523 0 0 1-.97-.92 2.558 2.558 0 0 1-.36-1.36c0-.513.12-.967.36-1.36a2.45 2.45 0 0 1 .97-.91c.414-.22.867-.33 1.36-.33.78 0 1.374.257 1.78.77v-.69h1.48Zm-2.95 3.84c.414 0 .75-.12 1.01-.36.267-.247.4-.567.4-.96s-.133-.71-.4-.95c-.26-.247-.596-.37-1.01-.37-.413 0-.753.123-1.02.37-.266.24-.4.557-.4.95 0 .393.134.713.4.96.267.24.607.36 1.02.36Zm12.484-2.1c.4.127.714.34.94.64.227.293.34.657.34 1.09 0 .613-.24 1.087-.72 1.42-.473.327-1.166.49-2.08.49h-3.62v-7h3.42c.854 0 1.507.163 1.96.49.46.327.69.77.69 1.33 0 .34-.083.643-.25.91a1.68 1.68 0 0 1-.68.63Zm-3.53-2.14v1.65h1.61c.4 0 .704-.07.91-.21.207-.14.31-.347.31-.62s-.103-.477-.31-.61c-.206-.14-.51-.21-.91-.21h-1.61Zm1.89 4.56c.427 0 .747-.07.96-.21.22-.14.33-.357.33-.65 0-.58-.43-.87-1.29-.87h-1.89v1.73h1.89Zm5.527-3.45c.186-.26.436-.457.75-.59.32-.133.686-.2 1.1-.2v1.44a5.66 5.66 0 0 0-.35-.02c-.447 0-.797.127-1.05.38-.254.247-.38.62-.38 1.12V38h-1.56v-5.38h1.49v.71Zm5.288 4.75a3.294 3.294 0 0 1-1.53-.35 2.682 2.682 0 0 1-1.05-.99 2.714 2.714 0 0 1-.38-1.43c0-.533.127-1.01.38-1.43.254-.42.604-.747 1.05-.98.454-.24.964-.36 1.53-.36.567 0 1.074.12 1.52.36.447.233.797.56 1.05.98.254.42.38.897.38 1.43 0 .533-.126 1.01-.38 1.43-.253.42-.603.75-1.05.99-.446.233-.953.35-1.52.35Zm0-1.28c.4 0 .727-.133.98-.4.26-.273.39-.637.39-1.09 0-.453-.13-.813-.39-1.08-.253-.273-.58-.41-.98-.41s-.73.137-.99.41c-.26.267-.39.627-.39 1.08 0 .453.13.817.39 1.09.26.267.59.4.99.4Zm7.463.94c-.153.113-.343.2-.57.26-.22.053-.453.08-.7.08-.64 0-1.136-.163-1.49-.49-.346-.327-.52-.807-.52-1.44v-2.21h-.83v-1.2h.83v-1.31h1.56v1.31h1.34v1.2h-1.34v2.19c0 .227.057.403.17.53.12.12.287.18.5.18.247 0 .457-.067.63-.2l.42 1.1Zm4.146-5.2c.667 0 1.203.2 1.61.6.413.4.62.993.62 1.78V38h-1.56v-2.84c0-.427-.093-.743-.28-.95-.187-.213-.457-.32-.81-.32-.393 0-.707.123-.94.37-.233.24-.35.6-.35 1.08V38h-1.56v-7.42h1.56v2.6a2.02 2.02 0 0 1 .75-.47c.293-.113.613-.17.96-.17Zm8.973 2.79c0 .02-.01.16-.03.42h-4.07c.073.333.246.597.52.79.273.193.613.29 1.02.29.28 0 .526-.04.74-.12.22-.087.423-.22.61-.4l.83.9c-.507.58-1.247.87-2.22.87-.607 0-1.144-.117-1.61-.35a2.635 2.635 0 0 1-1.08-.99 2.714 2.714 0 0 1-.38-1.43c0-.527.123-1 .37-1.42a2.625 2.625 0 0 1 1.03-.99c.44-.24.93-.36 1.47-.36a3 3 0 0 1 1.43.34c.426.227.76.553 1 .98.246.42.37.91.37 1.47Zm-2.79-1.61c-.354 0-.65.1-.89.3-.24.2-.387.473-.44.82h2.65a1.27 1.27 0 0 0-.44-.81 1.302 1.302 0 0 0-.88-.31Zm5.318-.39a1.74 1.74 0 0 1 .75-.59c.32-.133.687-.2 1.1-.2v1.44a5.656 5.656 0 0 0-.35-.02c-.447 0-.797.127-1.05.38-.253.247-.38.62-.38 1.12V38h-1.56v-5.38h1.49v.71Z" fill="#FF9533"/></svg>