<svg width="14" height="14" fill="none" xmlns="http://www.w3.org/2000/svg"><path d="M7.096 1.535 8.215 5.22A1.1 1.1 0 0 0 9.267 6h3.362c.034 0 .05.01.06.017.013.01.027.028.035.052a.108.108 0 0 1 .002.063c-.003.012-.011.03-.04.05L9.935 8.148a1.1 1.1 0 0 0-.411 1.22l1.082 3.494c.01.033.006.051.001.063a.108.108 0 0 1-.04.048.108.108 0 0 1-.059.021c-.012 0-.031-.002-.058-.023L7.665 10.86a1.1 1.1 0 0 0-1.33 0L3.56 12.97c-.028.02-.047.023-.06.023a.108.108 0 0 1-.058-.021.108.108 0 0 1-.04-.049c-.004-.011-.009-.03.002-.063l1.08-3.49a1.1 1.1 0 0 0-.411-1.221L1.316 6.18c-.028-.02-.036-.037-.04-.049a.108.108 0 0 1 .003-.063.108.108 0 0 1 .034-.052c.01-.008.026-.017.06-.017h3.36a1.1 1.1 0 0 0 1.052-.78l1.12-3.685c.01-.033.024-.046.034-.053A.109.109 0 0 1 7 1.464c.027 0 .048.008.061.018.01.007.024.02.035.053Z" stroke="#F87C09"/></svg>