<svg width="18" height="18" viewBox="0 0 18 18" fill="none" xmlns="http://www.w3.org/2000/svg">
<path d="M11.2673 7.50003C11.0031 7.50003 10.77 7.32721 10.6932 7.07441L9.57408 3.39007C9.4017 2.82258 8.59825 2.82258 8.42588 3.39007L7.30676 7.07441C7.22997 7.32721 6.99686 7.50003 6.73266 7.50003H3.37374C2.78989 7.50003 2.54997 8.2493 3.02522 8.58843L5.78214 10.5557C5.99276 10.706 6.0833 10.9744 6.00677 11.2216L4.92591 14.7126C4.7533 15.27 5.39755 15.7208 5.86216 15.3677L8.63718 13.2583C8.85162 13.0953 9.14842 13.0952 9.36299 13.258L12.1464 15.3704C12.6111 15.723 13.2548 15.2722 13.0823 14.7149L12.0006 11.2213C11.9241 10.9743 12.0145 10.706 12.2248 10.5557L14.9776 8.58816C15.4524 8.2488 15.2123 7.50003 14.6287 7.50003H11.2673Z" fill="#F87C09"/>
</svg>
