<svg width="14" height="14" viewBox="0 0 14 14" fill="none" xmlns="http://www.w3.org/2000/svg">
<path d="M7.09568 1.53536L8.2148 5.2197C8.35558 5.68316 8.78295 6 9.26732 6H12.6287C12.6629 6 12.6795 6.00945 12.6894 6.01711C12.7024 6.02717 12.716 6.04481 12.7239 6.06947C12.7318 6.09412 12.731 6.11643 12.7263 6.13214C12.7227 6.14411 12.7147 6.16145 12.6869 6.18135L9.93412 8.14887C9.54845 8.42453 9.38276 8.91627 9.52297 9.36912L10.6047 12.8628C10.6148 12.8955 10.6107 12.9141 10.6063 12.9258C10.6005 12.9412 10.5877 12.9594 10.5665 12.9743C10.5453 12.9891 10.5238 12.9949 10.5074 12.9951C10.4949 12.9952 10.4759 12.9927 10.4487 12.972L7.66527 10.8597C7.27189 10.5612 6.72778 10.5614 6.33463 10.8602L3.55961 12.9696C3.53235 12.9903 3.51342 12.9928 3.50093 12.9927C3.48453 12.9925 3.46297 12.9868 3.44176 12.9719C3.42055 12.9571 3.40774 12.9388 3.40196 12.9234C3.39755 12.9118 3.39344 12.8931 3.40357 12.8604L4.48443 9.36946C4.62473 8.91631 4.45873 8.42426 4.07259 8.14871L1.31567 6.1814C1.28779 6.1615 1.27977 6.14416 1.27619 6.1322C1.2715 6.11649 1.27062 6.09418 1.27852 6.0695C1.28642 6.04483 1.3001 6.02718 1.31305 6.01711C1.3229 6.00945 1.3395 6 1.37376 6H4.73268C5.21705 6 5.64442 5.68316 5.7852 5.2197L6.90432 1.53536C6.91457 1.50162 6.92874 1.48862 6.93878 1.48165C6.95224 1.47232 6.9735 1.46442 7 1.46442C7.0265 1.46442 7.04776 1.47232 7.06122 1.48165C7.07126 1.48862 7.08543 1.50162 7.09568 1.53536Z" stroke="#F87C09"/>
</svg>
